<?xml version="1.0" encoding="UTF-8"?>
<!DOCTYPE svg PUBLIC "-//W3C//DTD SVG 1.1//EN" "http://www.w3.org/Graphics/SVG/1.1/DTD/svg11.dtd">
<svg version="1.1" xmlns="http://www.w3.org/2000/svg" xmlns:xlink="http://www.w3.org/1999/xlink" width="96" height="96"  xml:space="preserve" id="atHome">
    <!-- Generated by PaintCode - http://www.paintcodeapp.com -->
    <g id="atHome-atHomeGroup">
        <g id="atHome-group">
            <path id="atHome-bezier" stroke="none" fill="rgb(90, 90, 90)" d="M 77.73,50.82 L 77.73,86.52 C 77.73,88.57 76.05,90.23 73.99,90.23 L 57.7,90.23 C 55.63,90.23 53.96,88.57 53.96,86.52 L 53.96,63.25 C 53.96,62.24 53.14,61.43 52.13,61.43 L 39.13,61.43 C 38.12,61.43 37.3,62.24 37.3,63.25 L 37.3,86.52 C 37.3,88.57 35.63,90.23 33.56,90.23 L 17.22,90.23 C 15.15,90.23 13.48,88.57 13.48,86.52 L 13.48,50.84 C 13.48,49.68 14.02,48.6 14.94,47.9 L 43.54,26.09 C 44.89,25.06 46.78,25.06 48.12,26.1 L 76.29,47.9 C 77.2,48.6 77.73,49.68 77.73,50.82 Z M 75.82,50.82 C 75.82,50.26 75.56,49.74 75.11,49.39 L 46.95,27.6 C 46.29,27.09 45.37,27.08 44.7,27.59 L 16.1,49.4 C 15.65,49.74 15.39,50.27 15.39,50.84 L 15.39,86.52 C 15.39,87.53 16.21,88.34 17.22,88.34 L 33.56,88.34 C 34.57,88.34 35.39,87.53 35.39,86.52 L 35.39,63.25 C 35.39,61.2 37.07,59.54 39.13,59.54 L 52.13,59.54 C 54.2,59.54 55.87,61.2 55.87,63.25 L 55.87,86.52 C 55.87,87.53 56.69,88.34 57.7,88.34 L 73.99,88.34 C 75,88.34 75.82,87.53 75.82,86.52 L 75.82,50.82 Z M 75.82,50.82" />
            <path id="atHome-bezier2" stroke="none" fill="rgb(90, 90, 90)" d="M 3.96,49.92 L 43.47,19.87 C 44.86,18.81 46.81,18.81 48.19,19.89 L 88.12,50.79 C 88.54,51.11 88.61,51.7 88.29,52.11 87.96,52.53 87.36,52.6 86.95,52.28 L 47.01,21.38 C 46.32,20.84 45.34,20.83 44.64,21.37 L 5.12,51.43 C 4.7,51.74 4.1,51.67 3.78,51.25 3.46,50.84 3.54,50.24 3.96,49.92 Z M 3.96,49.92" />
        </g>
        <path id="atHome-bezier5" stroke="none" fill="rgb(90, 90, 90)" d="M 90.56,6.73 L 78.87,18.42 C 78.58,18.72 78.1,18.72 77.81,18.42 77.52,18.13 77.52,17.66 77.81,17.36 L 89.5,5.67 C 89.79,5.38 90.27,5.38 90.56,5.67 90.85,5.96 90.85,6.44 90.56,6.73 Z M 90.56,6.73" />
        <path id="atHome-polygon2" stroke="none" fill="rgb(90, 90, 90)" d="M 0,7.13 L 27.27,-0 19.96,26.62 0,7.13 Z M 0,7.13" transform="translate(79, -0.62) rotate(61.77)"  />
    </g>
</svg>
