<?xml version="1.0" encoding="UTF-8"?>
<!DOCTYPE svg PUBLIC "-//W3C//DTD SVG 1.1//EN" "http://www.w3.org/Graphics/SVG/1.1/DTD/svg11.dtd">
<svg version="1.1" xmlns="http://www.w3.org/2000/svg" xmlns:xlink="http://www.w3.org/1999/xlink" width="96" height="96"  xml:space="preserve" id="awayFromHome">
    <!-- Generated by PaintCode - http://www.paintcodeapp.com -->
    <g id="awayFromHome-awayFromHomeGroup">
        <g id="awayFromHome-group">
            <path id="awayFromHome-bezier" stroke="none" fill="rgb(90, 90, 90)" d="M 78.6,50.27 L 78.6,86.47 C 78.6,88.55 76.91,90.23 74.82,90.23 L 58.34,90.23 C 56.25,90.23 54.55,88.55 54.55,86.47 L 54.55,62.87 C 54.55,61.85 53.72,61.03 52.7,61.03 L 39.55,61.03 C 38.53,61.03 37.7,61.85 37.7,62.87 L 37.7,86.47 C 37.7,88.55 36,90.23 33.91,90.23 L 17.38,90.23 C 15.29,90.23 13.6,88.55 13.6,86.47 L 13.6,50.28 C 13.6,49.11 14.14,48.01 15.07,47.3 L 44.01,25.19 C 45.38,24.14 47.29,24.15 48.65,25.2 L 77.14,47.3 C 78.06,48.02 78.6,49.11 78.6,50.27 Z M 76.67,50.27 C 76.67,49.7 76.41,49.17 75.96,48.82 L 47.46,26.72 C 46.79,26.2 45.86,26.2 45.19,26.71 L 16.25,48.82 C 15.79,49.17 15.53,49.71 15.53,50.28 L 15.53,86.47 C 15.53,87.49 16.36,88.31 17.38,88.31 L 33.91,88.31 C 34.94,88.31 35.76,87.49 35.76,86.47 L 35.76,62.87 C 35.76,60.79 37.46,59.11 39.55,59.11 L 52.7,59.11 C 54.79,59.11 56.49,60.79 56.49,62.87 L 56.49,86.47 C 56.49,87.49 57.32,88.31 58.34,88.31 L 74.82,88.31 C 75.84,88.31 76.67,87.49 76.67,86.47 L 76.67,50.27 Z M 76.67,50.27" />
            <path id="awayFromHome-bezier2" stroke="none" fill="rgb(90, 90, 90)" d="M 3.96,49.36 L 43.94,18.88 C 45.35,17.8 47.31,17.81 48.71,18.9 L 89.12,50.23 C 89.54,50.56 89.61,51.16 89.28,51.58 88.96,52 88.35,52.07 87.93,51.74 L 47.53,20.41 C 46.82,19.86 45.83,19.86 45.12,20.4 L 5.14,50.88 C 4.72,51.2 4.11,51.12 3.79,50.7 3.46,50.28 3.54,49.68 3.96,49.36 Z M 3.96,49.36" />
        </g>
        <path id="awayFromHome-bezier5" stroke="none" fill="rgb(90, 90, 90)" d="M 69.96,26.21 L 81.65,14.52 C 81.94,14.23 82.42,14.23 82.71,14.52 83,14.82 83,15.29 82.71,15.58 L 71.02,27.27 C 70.73,27.57 70.25,27.57 69.96,27.27 69.67,26.98 69.67,26.51 69.96,26.21 Z M 69.96,26.21" />
        <path id="awayFromHome-polygon2" stroke="none" fill="rgb(90, 90, 90)" d="M 67,10.51 L 94.27,3.38 86.96,30 67,10.51 Z M 67,10.51" />
    </g>
</svg>
