<?xml version="1.0" encoding="UTF-8"?>
<!DOCTYPE svg PUBLIC "-//W3C//DTD SVG 1.1//EN" "http://www.w3.org/Graphics/SVG/1.1/DTD/svg11.dtd">
<svg version="1.1" xmlns="http://www.w3.org/2000/svg" xmlns:xlink="http://www.w3.org/1999/xlink" width="96" height="96"  xml:space="preserve" id="calendar">
    <!-- Generated by PaintCode - http://www.paintcodeapp.com -->
    <g id="calendar-calendarGroup">
        <rect id="calendar-rectangle2" stroke="none" fill="rgb(90, 90, 90)" x="26.75" y="6" width="7.8" height="14.9" rx="2.4" />
        <rect id="calendar-rectangle3" stroke="none" fill="rgb(90, 90, 90)" x="64.25" y="6" width="7.8" height="14.9" rx="2.4" />
        <path id="calendar-bezier3" stroke="none" fill="rgb(90, 90, 90)" d="M 18,32 L 78,32 C 78.55,32 79,32.45 79,33 79,33.55 78.55,34 78,34 L 18,34 C 17.45,34 17,33.55 17,33 17,32.45 17.45,32 18,32 Z M 18,32" />
        <path id="calendar-bezier4" stroke="none" fill="rgb(90, 90, 90)" d="M 42.29,39.72 L 53.71,39.72 53.71,70.23 48,70.23 48,44.21 42.29,44.21 42.29,39.72 Z M 42.29,39.72" />
        <path id="calendar-rectangle" stroke="none" fill="rgb(90, 90, 90)" d="M 9,80 L 87,80 86,81 86,15 87,16 9,16 10,15 10,81 9,80 Z M 9,82 C 8.45,82 8,81.55 8,81 L 8,15 C 8,14.45 8.45,14 9,14 L 87,14 C 87.55,14 88,14.45 88,15 L 88,81 C 88,81.55 87.55,82 87,82 L 9,82 Z M 9,82" />
    </g>
</svg>
