<?xml version="1.0" encoding="UTF-8"?>
<!DOCTYPE svg PUBLIC "-//W3C//DTD SVG 1.1//EN" "http://www.w3.org/Graphics/SVG/1.1/DTD/svg11.dtd">
<svg version="1.1" xmlns="http://www.w3.org/2000/svg" xmlns:xlink="http://www.w3.org/1999/xlink" width="32" height="32"  xml:space="preserve" id="calllog">
    <!-- Generated by PaintCode - http://www.paintcodeapp.com -->
    <g id="calllog-callLogGroup">
        <path id="calllog-bezier5" stroke="rgb(90, 90, 90)" stroke-width="1.5" stroke-linecap="round" stroke-miterlimit="10" fill="none" d="M 21.49,30.05 C 19.36,30.06 17.89,29.63 16.48,28.96 13.46,27.51 11.07,25.3 8.88,22.82 7,20.69 5.37,18.38 4.33,15.71 3.29,13.04 3.1,10.35 4.19,7.64 4.67,6.46 5.38,5.44 6.38,4.64 6.8,4.31 7.19,3.94 7.6,3.61 8.5,2.89 9.43,2.89 10.31,3.63 10.58,3.85 10.82,4.1 11.02,4.38 11.72,5.29 12.33,6.26 12.89,7.27 13.12,7.69 13.29,8.14 13.38,8.62 13.59,9.66 13.37,10.56 12.52,11.26 12.03,11.66 11.54,12.06 11.04,12.45 9.97,13.29 9.73,14.08 10.14,15.38 10.47,16.42 11.1,17.28 11.72,18.14 12.78,19.61 14.04,20.89 15.47,22 15.85,22.3 16.25,22.57 16.68,22.78 17.66,23.25 18.55,23.13 19.35,22.42 19.75,22.06 20.1,21.66 20.48,21.28 21.65,20.11 23,19.89 24.39,20.78 25.71,21.63 26.9,22.66 27.94,23.82 28.9,24.91 28.79,25.96 27.72,26.93 27.44,27.19 27.14,27.42 26.88,27.69 25.26,29.39 23.22,30.03 21.49,30.05 Z M 21.49,30.05" />
        <path id="calllog-bezier2" stroke="rgb(90, 90, 90)" stroke-width="1.5" stroke-linecap="round" stroke-linejoin="round" stroke-miterlimit="10" fill="none" d="M 13.35,1.93 L 26.94,1.93 26.94,18.83" />
        <path id="calllog-bezier3" stroke="rgb(90, 90, 90)" stroke-width="1.5" stroke-linecap="round" stroke-linejoin="round" stroke-miterlimit="10" fill="none" d="M 15.87,5.49 L 23.93,5.49" />
        <path id="calllog-bezier4" stroke="rgb(90, 90, 90)" stroke-width="1.5" stroke-linecap="round" stroke-miterlimit="10" fill="none" d="M 15.87,8.97 L 23.92,8.97" />
        <path id="calllog-bezier6" stroke="rgb(90, 90, 90)" stroke-width="1.5" stroke-linecap="round" stroke-miterlimit="10" fill="none" d="M 15.9,12.47 L 23.96,12.47" />
        <path id="calllog-bezier7" stroke="rgb(90, 90, 90)" stroke-width="1.5" stroke-linecap="round" stroke-miterlimit="10" fill="none" d="M 15.94,16.08 L 24,16.08" />
    </g>
</svg>
