<?xml version="1.0" encoding="UTF-8"?>
<!DOCTYPE svg PUBLIC "-//W3C//DTD SVG 1.1//EN" "http://www.w3.org/Graphics/SVG/1.1/DTD/svg11.dtd">
<svg version="1.1" xmlns="http://www.w3.org/2000/svg" xmlns:xlink="http://www.w3.org/1999/xlink" width="32" height="32"  xml:space="preserve" id="camera">
    <!-- Generated by PaintCode - http://www.paintcodeapp.com -->
    <g id="camera-cameraGroup">
        <path id="camera-oval" stroke="none" fill="rgb(90, 90, 90)" d="M 28.75,16 C 28.75,23.04 23.04,28.75 16,28.75 8.96,28.75 3.25,23.04 3.25,16 3.25,8.96 8.96,3.25 16,3.25 23.04,3.25 28.75,8.96 28.75,16 L 27.25,16 C 27.25,9.79 22.21,4.75 16,4.75 9.79,4.75 4.75,9.79 4.75,16 4.75,22.21 9.79,27.25 16,27.25 22.21,27.25 27.25,22.21 27.25,16 L 28.75,16 Z M 28.75,16" />
        <path id="camera-bezier" stroke="none" fill="rgb(90, 90, 90)" d="M 20.35,22.81 L 12.02,22.81 C 9.75,22.81 7.93,20.88 7.93,18.51 L 7.93,14.08 C 7.93,11.86 9.54,10 11.64,9.8 11.82,9.79 12.03,9.73 12.29,9.63 L 14.05,8.98 C 14.35,8.87 14.67,8.81 14.99,8.81 L 17.66,8.81 C 18.02,8.81 18.38,8.88 18.71,9.02 L 20.06,9.6 C 20.32,9.71 20.59,9.78 20.85,9.82 22.9,10.08 24.43,11.92 24.43,14.08 L 24.43,18.51 C 24.43,20.88 22.61,22.81 20.35,22.81 Z M 20.35,21.31 C 21.76,21.31 22.93,20.07 22.93,18.51 L 22.93,14.08 C 22.93,12.65 21.94,11.47 20.66,11.31 20.26,11.25 19.86,11.14 19.47,10.98 L 18.13,10.4 C 17.98,10.34 17.82,10.31 17.66,10.31 L 14.99,10.31 C 14.85,10.31 14.71,10.34 14.57,10.39 L 12.82,11.04 C 12.44,11.18 12.12,11.26 11.79,11.3 10.47,11.42 9.43,12.62 9.43,14.08 L 9.43,18.51 C 9.43,20.07 10.6,21.31 12.02,21.31 L 20.35,21.31 Z M 20.35,21.31" />
        <path id="camera-oval2" stroke="none" fill="rgb(90, 90, 90)" d="M 22.3,16.4 C 22.3,18.94 20.24,21 17.7,21 15.16,21 13.1,18.94 13.1,16.4 13.1,13.86 15.16,11.8 17.7,11.8 20.24,11.8 22.3,13.86 22.3,16.4 Z M 20.8,16.4 C 20.8,14.69 19.41,13.3 17.7,13.3 15.99,13.3 14.6,14.69 14.6,16.4 14.6,18.11 15.99,19.5 17.7,19.5 19.41,19.5 20.8,18.11 20.8,16.4 Z M 20.8,16.4" />
    </g>
</svg>
