<?xml version="1.0" encoding="UTF-8"?>
<!DOCTYPE svg PUBLIC "-//W3C//DTD SVG 1.1//EN" "http://www.w3.org/Graphics/SVG/1.1/DTD/svg11.dtd">
<svg version="1.1" xmlns="http://www.w3.org/2000/svg" xmlns:xlink="http://www.w3.org/1999/xlink" width="32" height="32"  xml:space="preserve" id="camera">
    <!-- Generated by PaintCode - http://www.paintcodeapp.com -->
    <g id="camera-cameraGroup">
        <path id="camera-bezier" stroke="rgb(254, 254, 254)" stroke-width="1.5" stroke-miterlimit="10" fill="none" d="M 24.79,28.2 L 8.12,28.2 C 4.44,28.2 1.45,25.21 1.45,21.53 L 1.45,13.2 C 1.45,9.72 4.12,6.86 7.51,6.56 8.09,6.5 8.65,6.34 9.2,6.15 L 12.71,4.93 C 13.15,4.77 13.61,4.7 14.07,4.7 L 19.42,4.7 C 19.94,4.7 20.45,4.79 20.93,4.99 L 23.62,6.06 C 24.26,6.32 24.93,6.5 25.61,6.58 28.9,6.98 31.45,9.79 31.45,13.2 L 31.45,21.53 C 31.45,25.21 28.47,28.2 24.79,28.2 Z M 24.79,28.2" />
        <circle id="camera-oval" stroke="rgb(254, 254, 254)" stroke-width="1.5" stroke-miterlimit="10" fill="none" cx="20.95" cy="17.01" r="7.35" />
    </g>
</svg>
