<?xml version="1.0" encoding="UTF-8"?>
<!DOCTYPE svg PUBLIC "-//W3C//DTD SVG 1.1//EN" "http://www.w3.org/Graphics/SVG/1.1/DTD/svg11.dtd">
<svg version="1.1" xmlns="http://www.w3.org/2000/svg" xmlns:xlink="http://www.w3.org/1999/xlink" width="96" height="96"  xml:space="preserve" id="chat">
    <!-- Generated by PaintCode - http://www.paintcodeapp.com -->
    <g id="chat-chatGroup">
        <path id="chat-bezier" stroke="none" fill="rgb(90, 90, 90)" d="M 93.39,44.89 C 93.39,65.97 72.81,82.97 47.51,82.97 38.11,82.97 29.12,80.61 21.54,76.28 21.67,76.36 21.72,76.37 21.71,76.37 21.59,76.38 21.4,76.43 21.16,76.5 20.66,76.67 19.97,76.95 19.1,77.35 17.71,78 16.38,78.68 13.15,80.38 13.14,80.39 13.14,80.39 13.13,80.39 5.15,84.59 3.82,85.2 2.68,84.36 1.55,83.53 2.06,82.59 3.77,80.45 4.65,79.35 5.57,78.31 7.82,75.82 7.83,75.82 7.83,75.82 7.83,75.82 10.01,73.4 10.92,72.37 11.77,71.32 12.28,70.68 12.64,70.18 12.83,69.83 12.91,69.69 12.95,69.59 12.96,69.56 12.93,69.72 12.97,69.96 13.19,70.17 5.8,63.25 1.63,54.34 1.63,44.89 1.63,23.81 22.21,6.81 47.51,6.81 72.81,6.81 93.39,23.81 93.39,44.89 Z M 91.39,44.89 C 91.39,25.01 71.78,8.81 47.51,8.81 23.24,8.81 3.63,25.01 3.63,44.89 3.63,53.77 7.55,62.16 14.56,68.7 15.5,69.58 14.99,70.49 13.33,72.57 12.45,73.67 11.53,74.71 9.31,77.16 9.31,77.16 9.31,77.16 9.31,77.16 7.08,79.62 6.17,80.64 5.33,81.7 4.82,82.34 4.46,82.84 4.28,83.19 4.21,83.31 4.17,83.4 4.17,83.41 4.2,83.22 4.13,82.95 3.86,82.75 3.71,82.64 3.63,82.63 3.61,82.63 3.72,82.62 3.9,82.58 4.13,82.51 4.62,82.36 5.31,82.08 6.18,81.68 7.59,81.02 8.99,80.31 12.2,78.62 12.21,78.62 12.21,78.62 12.22,78.61 19.98,74.53 21.37,73.89 22.53,74.55 29.81,78.7 38.45,80.97 47.51,80.97 71.78,80.97 91.39,64.77 91.39,44.89 Z M 91.39,44.89" />
    </g>
</svg>
