<?xml version="1.0" encoding="UTF-8"?>
<!DOCTYPE svg PUBLIC "-//W3C//DTD SVG 1.1//EN" "http://www.w3.org/Graphics/SVG/1.1/DTD/svg11.dtd">
<svg version="1.1" xmlns="http://www.w3.org/2000/svg" xmlns:xlink="http://www.w3.org/1999/xlink" width="32" height="32"  xml:space="preserve" id="checkMark">
    <!-- Generated by PaintCode - http://www.paintcodeapp.com -->
    <g id="checkMark-checkMarkGroup">
        <path id="checkMark-oval" stroke="none" fill="rgb(255, 255, 255)" d="M 28.75,16 C 28.75,23.04 23.04,28.75 16,28.75 8.96,28.75 3.25,23.04 3.25,16 3.25,8.96 8.96,3.25 16,3.25 23.04,3.25 28.75,8.96 28.75,16 L 27.25,16 C 27.25,9.79 22.21,4.75 16,4.75 9.79,4.75 4.75,9.79 4.75,16 4.75,22.21 9.79,27.25 16,27.25 22.21,27.25 27.25,22.21 27.25,16 L 28.75,16 Z M 28.75,16" />
        <circle id="checkMark-oval2" stroke="none" fill="rgb(90, 90, 90)" cx="16" cy="16" r="12.75" />
        <path id="checkMark-bezier" stroke="none" fill="rgb(255, 255, 255)" d="M 10.47,16.41 L 15.47,20.41 C 15.79,20.67 15.84,21.15 15.59,21.47 15.33,21.79 14.85,21.84 14.53,21.59 L 9.53,17.59 C 9.21,17.33 9.16,16.85 9.41,16.53 9.67,16.21 10.15,16.16 10.47,16.41 Z M 10.47,16.41" />
        <path id="checkMark-bezier2" stroke="none" fill="rgb(255, 255, 255)" d="M 14.39,20.57 L 21.39,10.57 C 21.62,10.23 22.09,10.15 22.43,10.39 22.77,10.62 22.85,11.09 22.61,11.43 L 15.61,21.43 C 15.38,21.77 14.91,21.85 14.57,21.61 14.23,21.38 14.15,20.91 14.39,20.57 Z M 14.39,20.57" />
    </g>
</svg>
