<?xml version="1.0" encoding="UTF-8"?>
<!DOCTYPE svg PUBLIC "-//W3C//DTD SVG 1.1//EN" "http://www.w3.org/Graphics/SVG/1.1/DTD/svg11.dtd">
<svg version="1.1" xmlns="http://www.w3.org/2000/svg" xmlns:xlink="http://www.w3.org/1999/xlink" width="32" height="32"  xml:space="preserve" id="community">
    <!-- Generated by PaintCode - http://www.paintcodeapp.com -->
    <g id="community-allCommunityIcons_whiteGroup" transform="translate(57.9, -11.61)" >
        <path id="community-bezier" stroke="rgb(254, 254, 254)" stroke-width="2" stroke-linecap="round" stroke-miterlimit="10" fill="none" d="M -36.21,16.67 C -36.03,16.63 -35.83,16.6 -35.63,16.58 -34.98,16.52 -34.34,16.59 -33.72,16.8 -32.53,17.19 -31.71,18.02 -31.42,19.29 -30.84,21.75 -31.18,24.06 -32.73,26.09 -32.84,26.23 -32.96,26.37 -33.09,26.5 -33.24,26.64 -33.28,26.8 -33.23,27 -33.19,27.2 -33.15,27.4 -33.09,27.59 -32.96,28.08 -32.71,28.46 -32.25,28.69 -31.48,29.07 -30.71,29.47 -29.94,29.87 -29.58,30.06 -29.23,30.25 -28.88,30.44 -27.95,30.93 -27.49,31.76 -27.37,32.8 -27.29,33.47 -27.26,34.14 -27.22,34.81 -27.22,34.87 -27.27,34.96 -27.32,35.01 -27.61,35.3 -27.97,35.46 -28.35,35.57 -28.87,35.74 -29.41,35.83 -29.95,35.9" />
        <path id="community-bezier2" stroke="rgb(254, 254, 254)" stroke-width="2" stroke-linecap="round" stroke-miterlimit="10" fill="none" d="M -46.73,16.76 C -47.03,16.67 -47.36,16.61 -47.71,16.58 -48.36,16.53 -49,16.61 -49.62,16.83 -50.8,17.25 -51.6,18.1 -51.87,19.37 -52.4,21.85 -52.03,24.15 -50.43,26.14 -50.32,26.29 -50.19,26.42 -50.06,26.54 -49.92,26.68 -49.88,26.85 -49.92,27.04 -49.96,27.24 -49.99,27.44 -50.04,27.64 -50.16,28.13 -50.41,28.52 -50.86,28.75 -51.63,29.15 -52.39,29.57 -53.16,29.98 -53.51,30.17 -53.85,30.38 -54.2,30.57 -55.12,31.08 -55.57,31.92 -55.67,32.97 -55.74,33.63 -55.75,34.3 -55.78,34.97 -55.78,35.04 -55.73,35.13 -55.68,35.17 -55.39,35.46 -55.02,35.61 -54.64,35.72 -54.06,35.88 -53.47,35.97 -52.87,36.02" />
        <path id="community-bezier3" stroke="rgb(254, 254, 254)" stroke-width="2" stroke-linecap="round" stroke-miterlimit="10" fill="none" d="M -46.56,16.78 C -45.9,14.67 -44.44,13.56 -42.37,13.26 -41.49,13.14 -40.61,13.2 -39.75,13.45 -38.1,13.92 -36.94,15.01 -36.47,16.72 -35.56,20.05 -35.9,23.22 -37.92,26.08 -38.06,26.29 -38.22,26.48 -38.39,26.66 -38.58,26.86 -38.62,27.09 -38.56,27.35 -38.49,27.62 -38.42,27.89 -38.34,28.16 -38.13,28.82 -37.77,29.32 -37.13,29.6 -36.05,30.08 -34.98,30.59 -33.91,31.09 -33.41,31.32 -32.92,31.57 -32.43,31.81 -31.14,32.43 -30.46,33.53 -30.25,34.95 -30.11,35.86 -30.04,36.77 -29.95,37.68 -29.94,37.77 -30,37.89 -30.06,37.96 -30.44,38.38 -30.93,38.61 -31.44,38.79 -32.6,39.2 -33.8,39.38 -35,39.51 -37.18,39.75 -39.36,39.81 -41.55,39.8 -41.55,39.8 -41.68,39.8 -41.68,39.8 -44.62,39.76 -45.54,39.7 -47.53,39.56 -48.96,39.45 -50.39,39.26 -51.74,38.72 -52.17,38.55 -52.55,38.25 -52.93,37.99 -53,37.95 -53.07,37.82 -53.06,37.74 -52.99,37.14 -52.93,36.54 -52.86,35.94 -52.8,35.46 -52.74,34.97 -52.65,34.5 -52.43,33.35 -51.81,32.46 -50.78,31.94 -50.02,31.55 -49.23,31.2 -48.45,30.83 -47.48,30.36 -46.49,29.93 -45.55,29.4 -44.75,28.95 -44.46,28.1 -44.39,27.19 -44.38,26.98 -44.58,26.72 -44.73,26.53 -45.58,25.5 -46.24,24.37 -46.57,23.05 -47.09,20.97 -47.21,18.86 -46.56,16.78 Z M -46.56,16.78" />
    </g>
</svg>
