<?xml version="1.0" encoding="UTF-8"?>
<!DOCTYPE svg PUBLIC "-//W3C//DTD SVG 1.1//EN" "http://www.w3.org/Graphics/SVG/1.1/DTD/svg11.dtd">
<svg version="1.1" xmlns="http://www.w3.org/2000/svg" xmlns:xlink="http://www.w3.org/1999/xlink" width="96" height="96"  xml:space="preserve" id="comments">
    <!-- Generated by PaintCode - http://www.paintcodeapp.com -->
    <g id="comments-commentsGroup">
        <path id="comments-bezier" stroke="none" fill="rgb(90, 90, 90)" d="M 48.11,3.08 C 50.61,3.08 52.6,3.08 57.09,3.06 57.48,3.06 57.48,3.06 57.86,3.06 67.18,3.02 71.91,3.03 77.39,3.11 89.24,3.3 94.45,8.13 94.66,19.29 94.89,31.7 94.88,44.69 94.66,59.62 94.52,69.92 88.52,76 78.69,74.85 63.04,73 50.31,77.82 39.06,89.37 35.76,92.76 33.48,94.01 30.4,92.59 28.01,91.49 27.23,89.47 27.42,86.61 27.46,86.04 27.52,85.52 27.64,84.68 27.7,84.28 27.72,84.1 27.75,83.91 28.73,76.77 26.55,74.56 18.79,74.87 7.15,75.33 1.88,70.21 1.68,58.68 1.45,45.47 1.45,32.38 1.68,19.41 1.88,8.19 7.06,3.31 18.83,3.11 24.05,3.03 28.92,3.02 37.14,3.05 37.7,3.05 38.15,3.05 39.16,3.06 43.64,3.07 45.63,3.08 48.11,3.08 Z M 48.11,5.08 C 45.62,5.08 43.63,5.07 39.15,5.06 38.14,5.05 37.69,5.05 37.13,5.05 28.93,5.02 24.07,5.03 18.87,5.11 8.18,5.29 3.91,9.32 3.72,19.45 3.49,32.39 3.49,45.46 3.72,58.65 3.9,69.07 8.24,73.28 18.71,72.87 27.71,72.51 30.93,75.77 29.78,84.18 29.75,84.37 29.72,84.56 29.66,84.95 29.55,85.75 29.49,86.23 29.46,86.73 29.32,88.87 29.8,90.1 31.27,90.78 33.22,91.68 34.86,90.78 37.58,87.99 49.26,76 62.62,70.94 78.93,72.86 87.47,73.86 92.49,68.78 92.62,59.59 92.83,44.68 92.84,31.71 92.62,19.33 92.43,9.27 88.13,5.28 77.35,5.11 71.89,5.03 67.17,5.02 57.87,5.06 57.49,5.06 57.49,5.06 57.1,5.06 52.61,5.08 50.61,5.08 48.11,5.08 Z M 48.11,5.08" />
    </g>
</svg>
