<?xml version="1.0" encoding="UTF-8"?>
<!DOCTYPE svg PUBLIC "-//W3C//DTD SVG 1.1//EN" "http://www.w3.org/Graphics/SVG/1.1/DTD/svg11.dtd">
<svg version="1.1" xmlns="http://www.w3.org/2000/svg" xmlns:xlink="http://www.w3.org/1999/xlink" width="32" height="32"  xml:space="preserve" id="fameIcon">
    <!-- Generated by PaintCode - http://www.paintcodeapp.com -->
    <g id="fameIcon-frameIconGroup">
        <path id="fameIcon-oval" stroke="none" fill="rgb(90, 90, 90)" d="M 28.75,16.5 C 28.75,23.27 23.03,28.75 16,28.75 8.97,28.75 3.25,23.27 3.25,16.5 3.25,9.73 8.97,4.25 16,4.25 23.03,4.25 28.75,9.73 28.75,16.5 L 27.25,16.5 C 27.25,10.57 22.22,5.75 16,5.75 9.78,5.75 4.75,10.57 4.75,16.5 4.75,22.43 9.78,27.25 16,27.25 22.22,27.25 27.25,22.43 27.25,16.5 L 28.75,16.5 Z M 28.75,16.5" />
        <path id="fameIcon-bezier12" stroke="none" fill="rgb(90, 90, 90)" d="M 9.25,10.75 L 9.25,20.81 8.5,20.06 23.5,20.06 22.75,20.81 22.75,10.75 23.5,11.5 8.5,11.5 C 8.09,11.5 7.75,11.16 7.75,10.75 7.75,10.34 8.09,10 8.5,10 L 23.5,10 C 23.91,10 24.25,10.34 24.25,10.75 L 24.25,20.81 C 24.25,21.23 23.91,21.56 23.5,21.56 L 8.5,21.56 C 8.09,21.56 7.75,21.23 7.75,20.81 L 7.75,10.75 C 7.75,10.34 8.09,10 8.5,10 8.91,10 9.25,10.34 9.25,10.75 Z M 9.25,10.75" />
        <path id="fameIcon-bezier4" stroke="none" fill="rgb(90, 90, 90)" d="M 13,20.81 L 13,23.69 12.5,23.19 19.5,23.19 19,23.69 19,20.81 19.5,21.31 12.5,21.31 C 12.22,21.31 12,21.09 12,20.81 12,20.54 12.22,20.31 12.5,20.31 L 19.5,20.31 C 19.78,20.31 20,20.54 20,20.81 L 20,23.69 C 20,23.96 19.78,24.19 19.5,24.19 L 12.5,24.19 C 12.22,24.19 12,23.96 12,23.69 L 12,20.81 C 12,20.54 12.22,20.31 12.5,20.31 12.78,20.31 13,20.54 13,20.81 Z M 13,20.81" />
        <path id="fameIcon-bezier" stroke="none" fill="rgb(90, 90, 90)" d="M 10.5,23.19 C 21.5,23.19 21.5,23.19 21.5,23.19 21.78,23.19 22,23.41 22,23.69 22,23.96 21.78,24.19 21.5,24.19 21.5,24.19 21.5,24.19 10.5,24.19 10.22,24.19 10,23.96 10,23.69 10,23.41 10.22,23.19 10.5,23.19 Z M 10.5,23.19" />
    </g>
</svg>
