<?xml version="1.0" encoding="UTF-8"?>
<!DOCTYPE svg PUBLIC "-//W3C//DTD SVG 1.1//EN" "http://www.w3.org/Graphics/SVG/1.1/DTD/svg11.dtd">
<svg version="1.1" xmlns="http://www.w3.org/2000/svg" xmlns:xlink="http://www.w3.org/1999/xlink" width="32" height="32"  xml:space="preserve" id="helpIcon">
    <!-- Generated by PaintCode - http://www.paintcodeapp.com -->
    <g id="helpIcon-helpIconGroup">
        <circle id="helpIcon-oval" stroke="rgb(92, 92, 92)" stroke-width="1.5" stroke-miterlimit="10" fill="none" cx="16" cy="16" r="13" />
        <path id="helpIcon-text" stroke="none" fill="rgb(92, 92, 92)" d="M 10.07,10.98 L 12.38,10.98 C 12.45,10.02 12.8,9.25 13.41,8.69 14.03,8.12 14.85,7.84 15.87,7.84 16.88,7.84 17.68,8.12 18.28,8.67 18.88,9.22 19.18,9.91 19.18,10.75 19.18,11.47 19.01,12.07 18.68,12.56 18.35,13.05 17.79,13.53 17,14.01 16.08,14.56 15.39,15.16 14.95,15.81 14.51,16.46 14.29,17.23 14.3,18.12 L 14.3,19.36 16.67,19.36 16.67,18.48 C 16.67,17.77 16.82,17.19 17.13,16.73 17.43,16.28 18.01,15.8 18.87,15.29 19.73,14.77 20.42,14.13 20.93,13.37 21.44,12.6 21.7,11.69 21.7,10.63 21.7,9.23 21.17,8.07 20.11,7.13 19.05,6.2 17.67,5.73 15.96,5.73 14.06,5.73 12.62,6.24 11.64,7.26 10.66,8.28 10.14,9.52 10.07,10.98 Z M 15.67,25.64 C 16.21,25.64 16.66,25.46 17.01,25.11 17.36,24.76 17.53,24.31 17.53,23.76 17.53,23.2 17.36,22.74 17.01,22.39 16.66,22.04 16.21,21.86 15.67,21.86 15.12,21.86 14.66,22.04 14.31,22.39 13.96,22.74 13.79,23.2 13.79,23.76 13.79,24.31 13.96,24.76 14.31,25.11 14.66,25.46 15.12,25.64 15.67,25.64 Z M 15.67,25.64" />
    </g>
</svg>
