<?xml version="1.0" encoding="UTF-8"?>
<!DOCTYPE svg PUBLIC "-//W3C//DTD SVG 1.1//EN" "http://www.w3.org/Graphics/SVG/1.1/DTD/svg11.dtd">
<svg version="1.1" xmlns="http://www.w3.org/2000/svg" xmlns:xlink="http://www.w3.org/1999/xlink" width="96" height="96"  xml:space="preserve" id="information">
    <!-- Generated by PaintCode - http://www.paintcodeapp.com -->
    <g id="information-informationGroup">
        <path id="information-bezier3" stroke="none" fill="rgb(90, 90, 90)" d="M 36.73,21.11 C 38.21,16.75 41.5,14.27 46.35,13.63 48.33,13.37 50.31,13.5 52.25,14.01 56.12,15.04 58.78,17.44 59.84,21.03 61.93,28.05 60.94,34.44 56.63,40.05 56.31,40.47 55.95,40.88 55.55,41.26 55.43,41.38 55.42,41.44 55.47,41.62 55.51,41.78 55.51,41.78 55.56,41.94 55.56,41.96 55.56,41.96 55.57,41.97 55.73,42.55 55.81,42.82 55.91,43.13 56.28,44.22 56.89,44.92 57.88,45.32 59.52,46 60.85,46.56 63.74,47.81 63.91,47.88 63.91,47.88 64.08,47.95 64.38,48.08 64.38,48.08 64.67,48.21 65.22,48.44 65.66,48.64 66.61,49.07 66.65,49.09 66.65,49.09 66.68,49.1 67.21,49.34 67.48,49.46 67.79,49.6 70.72,50.9 72.44,53.24 72.97,56.43 73.16,57.57 73.28,58.56 73.47,60.45 73.48,60.56 73.48,60.56 73.49,60.66 73.54,61.22 73.57,61.46 73.6,61.77 73.65,62.28 73.42,62.79 73.08,63.13 72.24,63.98 71.22,64.5 69.78,64.98 67.57,65.7 65.33,66.09 62.08,66.41 57.88,66.84 53.5,67 48.21,66.98 L 48.21,65.98 48.75,66.82 C 48.21,67.01 48.21,67.01 48.22,66.98 48.19,66.98 48.19,66.98 48.16,66.98 48.11,66.98 48.11,66.98 48.05,66.98 48.03,66.98 48.03,66.98 48,66.98 47.93,66.98 47.93,66.98 47.9,66.98 42.26,66.9 40.34,66.82 35.56,66.51 31.79,66.26 29.03,65.8 26.42,64.83 25.77,64.59 25.3,64.32 24.35,63.71 24.29,63.68 24.29,63.68 24.23,63.64 24.02,63.51 23.88,63.42 23.74,63.34 23.28,63.05 22.94,62.43 23.01,61.87 23.06,61.44 23.1,61.09 23.19,60.31 23.2,60.23 23.2,60.23 23.21,60.14 23.3,59.35 23.36,58.89 23.42,58.39 23.56,57.29 23.71,56.38 23.89,55.51 24.42,52.96 25.96,50.99 28.36,49.86 29.22,49.45 29.92,49.15 31.47,48.49 31.49,48.48 31.49,48.48 31.51,48.47 32.38,48.09 32.8,47.92 33.29,47.7 33.76,47.49 34.14,47.32 34.99,46.96 35,46.95 35,46.95 35.02,46.95 37.2,46.01 38.17,45.57 39.33,44.97 40.5,44.36 41.09,43.22 41.23,41.5 41.23,41.55 41.06,41.29 40.77,40.97 38.74,38.71 37.37,36.38 36.68,33.83 35.44,29.23 35.38,25.07 36.73,21.11 Z M 38.62,21.75 C 37.42,25.3 37.47,29.07 38.62,33.31 39.21,35.53 40.43,37.59 42.26,39.63 42.95,40.4 43.29,40.93 43.22,41.67 43.03,44.01 42.12,45.77 40.25,46.75 39.04,47.38 38.03,47.83 35.8,48.79 35.79,48.79 35.79,48.79 35.78,48.8 34.94,49.16 34.56,49.32 34.1,49.53 33.6,49.75 33.18,49.93 32.3,50.3 32.28,50.31 32.28,50.31 32.26,50.32 30.73,50.98 30.04,51.28 29.21,51.67 27.38,52.53 26.25,53.98 25.85,55.92 25.68,56.73 25.54,57.59 25.41,58.65 25.34,59.13 25.29,59.58 25.2,60.37 25.19,60.45 25.19,60.45 25.18,60.54 25.09,61.32 25.05,61.68 24.99,62.12 25.03,61.86 24.96,61.74 24.78,61.63 24.93,61.72 25.08,61.81 25.3,61.95 25.36,61.99 25.36,61.99 25.42,62.03 26.26,62.56 26.64,62.78 27.11,62.95 29.51,63.84 32.1,64.27 35.69,64.51 40.44,64.83 42.33,64.9 47.94,64.98 47.98,64.98 47.98,64.98 48.05,64.98 48.07,64.98 48.07,64.98 48.09,64.98 46.25,64.94 47.96,64.95 47.67,65.14 L 47.92,64.98 48.22,64.98 C 53.44,65 57.76,64.84 61.88,64.42 65,64.11 67.12,63.74 69.16,63.08 70.33,62.69 71.08,62.3 71.66,61.72 71.61,61.77 71.59,61.81 71.61,61.98 71.58,61.67 71.55,61.42 71.5,60.86 71.49,60.76 71.49,60.76 71.48,60.65 71.29,58.8 71.18,57.84 71,56.76 70.57,54.21 69.27,52.45 66.98,51.43 66.66,51.29 66.38,51.16 65.85,50.92 65.82,50.91 65.82,50.91 65.79,50.89 64.84,50.46 64.41,50.27 63.88,50.05 63.58,49.92 63.58,49.92 63.29,49.79 63.12,49.72 63.12,49.72 62.95,49.64 60.07,48.4 58.75,47.84 57.12,47.17 55.57,46.54 54.56,45.39 54.02,43.77 53.9,43.41 53.81,43.12 53.64,42.51 53.64,42.5 53.64,42.5 53.63,42.48 53.59,42.32 53.59,42.32 53.54,42.16 53.3,41.29 53.5,40.48 54.15,39.83 54.48,39.51 54.78,39.17 55.05,38.83 58.95,33.75 59.84,28.02 57.92,21.59 57.07,18.7 54.96,16.8 51.74,15.95 50.05,15.5 48.33,15.39 46.61,15.62 42.49,16.16 39.84,18.15 38.62,21.75 Z M 38.62,21.75" />
        <path id="information-bezier" stroke="none" fill="rgb(90, 90, 90)" d="M 13.73,57.22 C 10.66,48.39 8.65,39.42 7.49,30.75 7.08,27.72 6.81,24.94 6.65,22.47 6.59,21.61 6.55,20.84 6.52,20.18 6.51,19.79 6.5,19.51 6.5,19.37 L 6.49,18.87 6.89,18.56 C 7.02,18.46 7.28,18.27 7.64,18.02 8.25,17.6 8.96,17.14 9.79,16.65 12.13,15.23 14.88,13.82 18.01,12.5 26.94,8.75 37.16,6.5 48.51,6.5 59.87,6.5 69.91,8.75 78.52,12.51 81.54,13.83 84.17,15.24 86.39,16.66 87.18,17.16 87.85,17.62 88.42,18.04 88.77,18.29 89.01,18.48 89.14,18.58 L 89.5,18.88 89.5,19.36 C 89.5,19.5 89.5,19.77 89.48,20.17 89.47,20.82 89.43,21.57 89.38,22.43 89.25,24.87 89.01,27.62 88.63,30.61 87.57,39.17 85.69,48.03 82.78,56.71 77.46,72.61 57.88,90.1 48.45,89.5 44.31,89.23 37.07,85.27 30.31,79.55 22.55,72.98 16.47,65.08 13.73,57.22 Z M 15.62,56.56 C 18.22,64.05 24.1,71.67 31.6,78.03 38.06,83.49 44.97,87.27 48.58,87.5 52.08,87.73 58.77,84.1 65.23,78.33 72.47,71.86 78.29,63.84 80.89,56.08 83.75,47.53 85.61,38.8 86.65,30.37 87.01,27.42 87.25,24.71 87.39,22.32 87.44,21.48 87.47,20.74 87.48,20.11 87.5,19.73 87.5,19.48 87.5,19.35 L 87.86,20.12 C 87.77,20.04 87.56,19.88 87.24,19.65 86.71,19.26 86.07,18.82 85.32,18.35 83.18,16.98 80.64,15.62 77.72,14.34 69.35,10.69 59.58,8.5 48.51,8.5 37.44,8.5 27.48,10.69 18.78,14.35 15.74,15.63 13.08,16.99 10.82,18.36 10.03,18.83 9.35,19.27 8.78,19.67 8.44,19.9 8.22,20.06 8.11,20.15 L 8.5,19.34 C 8.5,19.47 8.51,19.73 8.52,20.11 8.55,20.75 8.58,21.49 8.64,22.34 8.8,24.76 9.07,27.5 9.47,30.48 10.62,39.02 12.6,47.87 15.62,56.56 Z M 15.62,56.56" />
    </g>
</svg>
