<?xml version="1.0" encoding="UTF-8"?>
<!DOCTYPE svg PUBLIC "-//W3C//DTD SVG 1.1//EN" "http://www.w3.org/Graphics/SVG/1.1/DTD/svg11.dtd">
<svg version="1.1" xmlns="http://www.w3.org/2000/svg" xmlns:xlink="http://www.w3.org/1999/xlink" width="96" height="96"  xml:space="preserve" id="likes">
    <!-- Generated by PaintCode - http://www.paintcodeapp.com -->
    <g id="likes-likesGroup">
        <path id="likes-bezier2" stroke="none" fill="rgb(22, 159, 132)" d="M 94.71,38.88 C 94.42,39.96 94.06,41.07 93.61,42.21 93.33,42.96 92.99,43.75 92.54,44.72 90.15,49.87 86.85,54.92 82.17,60.56 74.27,70.07 64.65,79.13 51.91,89.02 50.97,89.77 50.06,90.45 48.51,91.58 L 47.95,92 47.38,91.58 C 33.34,81.06 22.57,71.12 13.71,60.47 8.65,54.38 5.18,48.95 2.82,43.39 2.74,43.21 2.66,43.02 2.57,42.79 2.52,42.67 2.37,42.29 2.35,42.23 1.87,41.05 1.5,39.94 1.21,38.88 0.54,36.55 0.28,34.42 0.43,32.35 1.35,19.58 6.31,10.68 15.55,5.27 18.16,3.75 20.84,3 23.73,3 26.22,3 28.91,3.58 31.69,4.73 36.6,6.75 40.84,9.49 44.67,13.09 L 48.64,16.84 47.32,16.84 51.27,13.09 C 54.93,9.62 59.04,6.93 63.81,4.9 66.67,3.69 69.42,3.06 72.03,3.06 74.83,3.06 77.52,3.75 80.23,5.14 84.98,7.6 88.73,11.65 91.65,17.45 94.29,22.67 95.57,27.84 95.53,33.21 95.52,35.02 95.25,36.89 94.71,38.88 Z M 94,33.49 L 94,33.49 94,33.49 Z M 94,33.49" />
        <path id="likes-bezier" stroke="none" fill="rgb(22, 159, 132)" d="M 94.71,38.88 C 94.42,39.96 94.06,41.07 93.61,42.21 93.33,42.96 92.99,43.75 92.54,44.72 90.15,49.87 86.85,54.92 82.17,60.56 74.27,70.07 64.65,79.13 51.91,89.02 50.97,89.77 50.06,90.45 48.51,91.58 L 47.94,92 47.38,91.58 C 33.33,81.06 22.57,71.12 13.71,60.47 8.65,54.38 5.18,48.95 2.82,43.39 2.74,43.21 2.66,43.02 2.57,42.79 2.52,42.67 2.37,42.29 2.34,42.23 1.87,41.05 1.49,39.94 1.21,38.88 0.53,36.55 0.28,34.42 0.43,32.35 1.35,19.58 6.31,10.68 15.55,5.27 18.16,3.75 20.84,3 23.73,3 26.22,3 28.91,3.58 31.69,4.73 36.6,6.75 40.84,9.49 44.67,13.09 L 48.64,16.84 47.32,16.84 51.27,13.09 C 54.93,9.62 59.04,6.93 63.81,4.9 66.67,3.69 69.42,3.06 72.03,3.06 74.83,3.06 77.52,3.75 80.23,5.14 84.98,7.6 88.73,11.65 91.65,17.45 94.29,22.67 95.56,27.84 95.53,33.21 95.52,35.02 95.25,36.89 94.71,38.88 Z M 92.79,38.28 C 93.28,36.48 93.52,34.8 93.53,33.19 93.56,28.2 92.38,23.39 89.9,18.48 87.16,13.06 83.72,9.34 79.37,7.08 76.92,5.83 74.53,5.22 72.03,5.22 69.69,5.22 67.18,5.78 64.55,6.9 59.99,8.85 56.08,11.4 52.6,14.71 L 48.64,18.46 47.98,19.09 47.32,18.46 43.35,14.71 C 39.7,11.28 35.66,8.67 30.98,6.74 28.41,5.69 25.97,5.15 23.73,5.15 21.18,5.15 18.83,5.81 16.51,7.16 7.89,12.21 3.29,20.45 2.42,32.51 2.3,34.3 2.52,36.16 3.12,38.26 3.39,39.24 3.74,40.27 4.18,41.38 4.2,41.44 4.36,41.82 4.4,41.94 4.49,42.15 4.56,42.32 4.63,42.48 6.91,47.84 10.27,53.1 15.2,59.03 23.95,69.55 34.6,79.39 48.52,89.81 L 47.39,89.8 C 48.92,88.68 49.81,88.01 50.74,87.28 63.37,77.47 72.88,68.51 80.68,59.12 85.24,53.62 88.45,48.73 90.75,43.76 91.18,42.84 91.49,42.09 91.76,41.39 92.18,40.31 92.52,39.28 92.79,38.28 Z M 92.79,38.28" />
    </g>
</svg>
