<?xml version="1.0" encoding="UTF-8"?>
<!DOCTYPE svg PUBLIC "-//W3C//DTD SVG 1.1//EN" "http://www.w3.org/Graphics/SVG/1.1/DTD/svg11.dtd">
<svg version="1.1" xmlns="http://www.w3.org/2000/svg" xmlns:xlink="http://www.w3.org/1999/xlink" width="96" height="96"  xml:space="preserve" id="memebers">
    <!-- Generated by PaintCode - http://www.paintcodeapp.com -->
    <g id="memebers-membersGroup">
        <path id="memebers-bezier" stroke="none" fill="rgb(90, 90, 90)" d="M 64.28,16.01 C 64.89,15.88 65.54,15.78 66.2,15.72 68.37,15.51 70.51,15.74 72.6,16.4 76.75,17.71 79.51,20.52 80.5,24.56 82.45,32.54 81.09,39.68 76.18,45.79 75.81,46.25 75.4,46.69 74.96,47.1 74.78,47.27 74.75,47.39 74.81,47.65 74.83,47.75 74.85,47.83 74.89,48.01 74.9,48.05 74.9,48.05 74.91,48.1 75.05,48.71 75.13,49.04 75.23,49.39 75.59,50.68 76.24,51.52 77.33,52.03 79.06,52.84 80.44,53.52 83.5,55.03 83.55,55.06 83.55,55.06 83.61,55.09 84.11,55.33 84.33,55.44 84.61,55.58 85.19,55.87 85.65,56.1 86.67,56.63 86.68,56.64 86.68,56.64 86.69,56.64 87.31,56.96 87.6,57.11 87.95,57.29 91.05,58.87 92.79,61.55 93.22,65.13 93.38,66.39 93.46,67.53 93.58,69.53 93.59,69.73 93.59,69.73 93.6,69.94 93.64,70.56 93.65,70.84 93.67,71.19 93.7,71.7 93.44,72.23 93.08,72.58 92.14,73.48 91.03,74.03 89.44,74.5 87.85,74.97 86.16,75.29 84.25,75.51 83.7,75.57 83.2,75.18 83.14,74.63 83.08,74.08 83.47,73.59 84.02,73.52 85.83,73.31 87.4,73.02 88.88,72.58 90.18,72.2 91.03,71.78 91.69,71.14 91.67,71.16 91.67,71.16 91.68,71.31 91.66,70.96 91.64,70.68 91.6,70.05 91.59,69.85 91.59,69.85 91.58,69.65 91.47,67.69 91.38,66.57 91.24,65.37 90.88,62.43 89.52,60.34 87.04,59.07 86.68,58.89 86.39,58.74 85.77,58.42 85.76,58.41 85.76,58.41 85.75,58.41 84.74,57.88 84.29,57.65 83.72,57.37 83.44,57.23 83.22,57.13 82.72,56.88 82.67,56.85 82.67,56.85 82.61,56.82 79.56,55.32 78.19,54.64 76.48,53.84 74.84,53.06 73.81,51.75 73.3,49.93 73.19,49.54 73.11,49.19 72.96,48.54 72.95,48.5 72.95,48.5 72.94,48.45 72.9,48.28 72.88,48.2 72.86,48.1 72.64,47.16 72.88,46.31 73.59,45.64 73.96,45.29 74.31,44.92 74.62,44.53 79.13,38.93 80.36,32.43 78.56,25.04 77.74,21.69 75.49,19.41 72,18.31 70.16,17.73 68.29,17.52 66.39,17.71 65.8,17.76 65.24,17.85 64.7,17.97 64.16,18.08 63.63,17.74 63.51,17.2 63.39,16.66 63.74,16.13 64.28,16.01 Z M 64.28,16.01" />
        <path id="memebers-bezier2" stroke="none" fill="rgb(90, 90, 90)" d="M 31.21,18.21 C 30.33,17.95 29.38,17.78 28.36,17.7 26.45,17.55 24.59,17.79 22.77,18.41 19.29,19.58 17.09,21.9 16.34,25.27 14.68,32.7 16.04,39.17 20.65,44.68 20.97,45.06 21.33,45.43 21.71,45.77 22.43,46.42 22.68,47.27 22.48,48.21 22.45,48.38 22.45,48.38 22.42,48.54 22.41,48.56 22.41,48.56 22.41,48.57 22.26,49.29 22.19,49.63 22.08,50.05 21.6,51.88 20.6,53.21 18.98,54.02 17.24,54.88 15.86,55.59 12.75,57.21 12.74,57.21 12.74,57.21 12.73,57.21 12.27,57.46 12.06,57.56 11.8,57.7 11.25,57.98 10.79,58.23 9.81,58.76 9.76,58.79 9.76,58.79 9.7,58.82 9.16,59.12 8.86,59.28 8.52,59.46 6.06,60.77 4.75,62.89 4.45,65.84 4.33,67.04 4.26,68.16 4.19,70.1 4.18,70.32 4.18,70.32 4.17,70.55 4.15,71.16 4.14,71.44 4.13,71.78 4.13,71.64 4.13,71.64 4.11,71.61 4.78,72.24 5.64,72.64 6.95,73 8.56,73.44 10.29,73.72 12.31,73.89 12.86,73.94 13.27,74.42 13.23,74.97 13.18,75.52 12.7,75.93 12.15,75.89 10.01,75.7 8.16,75.41 6.42,74.93 4.83,74.49 3.7,73.97 2.74,73.08 2.37,72.74 2.1,72.21 2.13,71.7 2.14,71.36 2.15,71.09 2.17,70.47 2.18,70.25 2.18,70.25 2.19,70.02 2.27,68.05 2.33,66.89 2.46,65.64 2.82,62.05 4.51,59.33 7.58,57.69 7.91,57.52 8.21,57.36 8.75,57.06 8.8,57.03 8.8,57.03 8.86,57 9.85,56.46 10.31,56.22 10.88,55.92 11.14,55.79 11.35,55.68 11.81,55.44 11.82,55.44 11.82,55.44 11.82,55.43 14.94,53.81 16.34,53.1 18.1,52.23 19.17,51.69 19.81,50.84 20.14,49.55 20.24,49.17 20.31,48.85 20.45,48.16 20.45,48.15 20.45,48.15 20.46,48.14 20.49,47.97 20.49,47.97 20.53,47.8 20.58,47.54 20.55,47.42 20.37,47.26 19.92,46.85 19.5,46.42 19.12,45.96 14.09,39.95 12.59,32.84 14.39,24.83 15.3,20.76 18.01,17.91 22.12,16.51 24.2,15.81 26.33,15.54 28.51,15.7 29.67,15.79 30.76,15.99 31.78,16.29 32.3,16.45 32.61,17 32.45,17.53 32.29,18.06 31.73,18.36 31.21,18.21 Z M 31.21,18.21" />
        <path id="memebers-bezier3" stroke="none" fill="rgb(90, 90, 90)" d="M 31.09,16.99 C 33.23,10.46 37.98,6.75 45.03,5.79 47.93,5.39 50.82,5.59 53.66,6.36 59.27,7.9 63.09,11.49 64.63,16.84 67.69,27.53 66.25,37.23 59.93,45.74 59.46,46.37 58.94,46.99 58.37,47.56 58.04,47.89 57.97,48.2 58.1,48.67 58.14,48.81 58.17,48.92 58.24,49.17 58.24,49.2 58.24,49.2 58.25,49.22 58.49,50.12 58.61,50.55 58.77,51.04 59.37,52.87 60.38,54.07 61.99,54.76 64.44,55.79 66.42,56.67 70.73,58.59 70.98,58.7 70.98,58.7 71.23,58.82 71.67,59.01 71.67,59.01 72.12,59.21 72.93,59.57 73.58,59.87 75,60.54 75.05,60.57 75.05,60.57 75.1,60.59 75.89,60.96 76.3,61.15 76.77,61.37 80.97,63.3 83.42,66.76 84.19,71.52 84.47,73.26 84.64,74.79 84.93,77.7 84.94,77.86 84.94,77.86 84.96,78.02 85.04,78.88 85.08,79.26 85.13,79.74 85.18,80.32 84.9,80.96 84.49,81.38 83.31,82.62 81.86,83.4 79.77,84.11 76.52,85.21 73.2,85.81 68.39,86.31 62.15,86.97 55.63,87.22 47.75,87.19 L 47.75,86.19 48.31,87.02 C 47.75,87.21 47.75,87.21 47.75,87.19 47.71,87.19 47.71,87.19 47.68,87.19 47.6,87.19 47.6,87.19 47.52,87.19 47.49,87.19 47.49,87.19 47.45,87.19 47.34,87.18 47.34,87.18 47.3,87.18 38.9,87.07 36.04,86.95 28.91,86.46 23.33,86.07 19.26,85.37 15.41,83.89 14.49,83.54 13.81,83.14 12.41,82.21 12.32,82.15 12.32,82.15 12.23,82.1 11.92,81.89 11.71,81.76 11.5,81.62 10.97,81.29 10.58,80.54 10.65,79.9 10.74,79.24 10.8,78.69 10.93,77.48 10.94,77.36 10.94,77.36 10.96,77.23 11.09,76 11.17,75.29 11.27,74.53 11.48,72.84 11.69,71.45 11.96,70.12 12.71,66.34 14.9,63.44 18.35,61.76 19.62,61.14 20.66,60.67 22.96,59.64 23,59.63 23,59.63 23.03,59.61 24.33,59.04 24.95,58.76 25.68,58.42 26.38,58.1 26.95,57.85 28.21,57.28 28.23,57.28 28.23,57.28 28.25,57.27 31.52,55.81 32.98,55.13 34.72,54.19 36.65,53.15 37.6,51.22 37.83,48.38 37.84,48.23 37.55,47.76 37.01,47.13 34.04,43.7 32.03,40.18 31.03,36.33 29.21,29.32 29.12,23 31.09,16.99 Z M 32.99,17.62 C 31.15,23.22 31.24,29.16 32.97,35.83 33.89,39.35 35.74,42.61 38.52,45.82 39.44,46.88 39.9,47.63 39.83,48.54 39.55,51.99 38.28,54.54 35.67,55.95 33.87,56.92 32.38,57.62 29.07,59.09 29.05,59.1 29.05,59.1 29.03,59.11 27.77,59.67 27.21,59.92 26.52,60.24 25.77,60.58 25.15,60.86 23.84,61.44 23.81,61.45 23.81,61.45 23.78,61.47 21.49,62.49 20.47,62.95 19.22,63.56 16.35,64.96 14.55,67.33 13.92,70.51 13.67,71.78 13.46,73.13 13.25,74.77 13.16,75.53 13.08,76.23 12.95,77.45 12.93,77.58 12.93,77.58 12.92,77.7 12.78,78.92 12.72,79.47 12.64,80.14 12.66,79.98 12.67,79.99 12.57,79.93 12.79,80.07 13.01,80.21 13.34,80.43 13.42,80.49 13.42,80.49 13.51,80.54 14.79,81.39 15.39,81.74 16.13,82.02 19.75,83.41 23.65,84.09 29.05,84.46 36.14,84.95 38.96,85.07 47.34,85.18 47.39,85.18 47.39,85.18 47.5,85.19 47.53,85.19 47.53,85.19 47.56,85.19 47.64,85.19 47.64,85.19 47.69,85.19 47.71,85.19 47.71,85.19 47.71,85.19 47.75,85.16 47.75,85.16 47.2,85.36 L 47.45,85.19 47.76,85.19 C 55.57,85.22 62.02,84.97 68.18,84.32 72.86,83.83 76.05,83.26 79.13,82.22 80.94,81.6 82.13,80.96 83.05,80 83.09,79.96 83.13,79.87 83.14,79.94 83.09,79.46 83.05,79.07 82.97,78.21 82.95,78.05 82.95,78.05 82.93,77.89 82.66,75.02 82.49,73.52 82.21,71.84 81.55,67.72 79.51,64.83 75.93,63.18 75.46,62.96 75.04,62.77 74.25,62.4 74.2,62.38 74.2,62.38 74.15,62.35 72.74,61.69 72.1,61.39 71.31,61.04 70.86,60.84 70.86,60.84 70.41,60.64 70.16,60.53 70.16,60.53 69.91,60.42 65.62,58.5 63.64,57.63 61.21,56.6 59.03,55.67 57.64,54.02 56.87,51.66 56.7,51.12 56.57,50.67 56.32,49.75 56.31,49.72 56.31,49.72 56.31,49.7 56.24,49.45 56.21,49.34 56.17,49.2 55.86,48.05 56.11,47.01 56.94,46.16 57.45,45.65 57.91,45.11 58.33,44.55 64.25,36.55 65.6,27.5 62.71,17.39 61.37,12.73 58.09,9.65 53.13,8.29 50.55,7.59 47.94,7.41 45.3,7.77 38.98,8.63 34.88,11.84 32.99,17.62 Z M 32.99,17.62" />
    </g>
</svg>
