<?xml version="1.0" encoding="UTF-8"?>
<!DOCTYPE svg PUBLIC "-//W3C//DTD SVG 1.1//EN" "http://www.w3.org/Graphics/SVG/1.1/DTD/svg11.dtd">
<svg version="1.1" xmlns="http://www.w3.org/2000/svg" xmlns:xlink="http://www.w3.org/1999/xlink" width="96" height="96"  xml:space="preserve" id="phoneCall">
    <!-- Generated by PaintCode - http://www.paintcodeapp.com -->
    <g id="phoneCall-phoneCallOutMissedGroup">
        <path id="phoneCall-bezier" stroke="none" fill="rgb(255, 221, 0)" d="M 63.96,95.12 C 57.08,95.16 51.88,93.94 46.34,91.28 36.9,86.75 28.81,79.99 20,70.03 12.73,61.81 7.56,53.92 4.21,45.36 0.36,35.49 0.07,26.07 3.74,16.96 5.48,12.63 8.07,9.06 11.55,6.27 12.14,5.8 12.6,5.41 13.63,4.52 13.64,4.51 13.64,4.51 13.64,4.51 14.67,3.62 15.13,3.23 15.73,2.75 19.2,-0.03 22.89,-0.01 26.29,2.83 27.23,3.62 28.11,4.54 28.87,5.54 31.19,8.57 33.31,11.89 35.34,15.59 36.2,17.16 36.8,18.79 37.14,20.49 37.95,24.6 36.93,27.98 33.86,30.5 32.26,31.81 30.58,33.16 28.76,34.6 25.41,37.23 24.72,39.51 26.01,43.57 26.91,46.38 28.14,48.4 31.27,52.73 34.79,57.6 39.02,61.93 43.94,65.77 45.36,66.87 46.62,67.69 47.91,68.31 50.88,69.75 53.52,69.39 55.96,67.22 56.67,66.59 57.21,66.04 58.39,64.79 58.41,64.78 58.41,64.78 58.42,64.77 59.07,64.08 59.38,63.76 59.76,63.37 64.17,58.96 69.34,58.27 74.43,61.53 78.98,64.45 83.14,68.02 86.78,72.13 90.41,76.22 90.08,80.42 85.98,84.18 85.67,84.46 85.42,84.68 84.87,85.15 84.86,85.16 84.86,85.16 84.85,85.16 83.96,85.93 83.57,86.27 83.14,86.73 77.89,92.24 70.96,95.04 63.97,95.12 L 63.96,95.12 Z M 63.94,93.12 C 70.42,93.04 76.82,90.46 81.69,85.35 82.19,84.83 82.61,84.45 83.56,83.64 83.56,83.64 83.56,83.64 83.57,83.63 84.1,83.17 84.34,82.97 84.62,82.71 87.94,79.67 88.17,76.71 85.29,73.46 81.76,69.49 77.75,66.04 73.35,63.22 69.07,60.47 64.93,61.03 61.18,64.79 60.81,65.16 60.51,65.47 59.87,66.15 59.86,66.16 59.86,66.16 59.85,66.17 58.62,67.46 58.05,68.04 57.29,68.71 54.24,71.42 50.74,71.9 47.04,70.11 45.61,69.42 44.24,68.53 42.72,67.34 37.64,63.4 33.28,58.93 29.65,53.91 26.39,49.4 25.09,47.25 24.11,44.18 22.56,39.32 23.52,36.18 27.52,33.03 29.34,31.59 31,30.26 32.59,28.95 35.06,26.93 35.85,24.3 35.18,20.88 34.88,19.39 34.35,17.94 33.58,16.55 31.6,12.94 29.53,9.7 27.28,6.75 26.61,5.87 25.84,5.06 25.01,4.37 22.34,2.14 19.71,2.12 16.98,4.31 16.41,4.77 15.96,5.15 14.95,6.03 14.94,6.03 14.94,6.03 14.94,6.03 13.89,6.94 13.41,7.34 12.8,7.83 9.59,10.4 7.21,13.69 5.59,17.7 2.13,26.32 2.4,35.22 6.07,44.63 9.33,52.95 14.37,60.65 21.5,68.7 30.15,78.48 38.04,85.08 47.21,89.48 52.48,92.01 57.37,93.15 63.95,93.12 L 63.94,93.12 Z M 63.94,93.12" />
        <g id="phoneCall-outgoingArrow">
            <path id="phoneCall-bezier2" stroke="none" fill="rgb(255, 221, 0)" d="M 50.54,42.69 L 79.43,13.8 C 79.82,13.41 80.45,13.41 80.84,13.8 81.23,14.19 81.23,14.82 80.84,15.21 L 51.95,44.1 C 51.56,44.49 50.93,44.49 50.54,44.1 50.15,43.71 50.15,43.08 50.54,42.69 Z M 50.54,42.69" />
            <path id="phoneCall-polygon" stroke="none" fill="rgb(255, 221, 0)" d="M 62,12.51 L 89.27,5.38 81.96,32 62,12.51 Z M 62,12.51" />
        </g>
        <g id="phoneCall-noAnswer">
            <path id="phoneCall-bezier4" stroke="none" fill="rgb(255, 221, 0)" d="M 5.82,74.47 L 14.76,83.41 22.51,91.16 C 23.09,91.75 23.09,92.7 22.51,93.28 21.92,93.87 20.97,93.87 20.38,93.28 L 12.63,85.53 3.7,76.6 C 3.11,76.01 3.11,75.06 3.7,74.47 4.28,73.89 5.23,73.89 5.82,74.47 Z M 5.82,74.47" />
            <path id="phoneCall-bezier3" stroke="none" fill="rgb(255, 221, 0)" d="M 3.88,90.71 L 12.44,82.15 19.86,74.73 C 20.45,74.14 21.4,74.14 21.99,74.73 22.57,75.31 22.57,76.26 21.99,76.85 L 14.56,84.27 6.01,92.83 C 5.42,93.42 4.47,93.42 3.88,92.83 3.3,92.24 3.3,91.29 3.88,90.71 Z M 3.88,90.71" />
        </g>
    </g>
</svg>
