<?xml version="1.0" encoding="UTF-8"?>
<!DOCTYPE svg PUBLIC "-//W3C//DTD SVG 1.1//EN" "http://www.w3.org/Graphics/SVG/1.1/DTD/svg11.dtd">
<svg version="1.1" xmlns="http://www.w3.org/2000/svg" xmlns:xlink="http://www.w3.org/1999/xlink" width="32" height="32"  xml:space="preserve" id="phoneIcon">
    <!-- Generated by PaintCode - http://www.paintcodeapp.com -->
    <g id="phoneIcon-phoneGroup">
        <path id="phoneIcon-bezier" stroke="rgb(73, 73, 75)" stroke-width="1.5" stroke-linecap="round" stroke-miterlimit="10" fill="none" d="M 21.45,29.36 C 19.32,29.37 17.85,28.95 16.44,28.27 13.42,26.82 11.03,24.61 8.84,22.14 6.96,20 5.33,17.7 4.29,15.02 3.24,12.35 3.06,9.66 4.15,6.95 4.62,5.77 5.34,4.75 6.34,3.95 6.76,3.62 7.15,3.26 7.56,2.92 8.46,2.2 9.38,2.2 10.27,2.94 10.53,3.16 10.77,3.42 10.98,3.69 11.68,4.6 12.29,5.57 12.84,6.58 13.08,7.01 13.24,7.45 13.34,7.93 13.55,8.97 13.33,9.87 12.48,10.57 11.99,10.97 11.5,11.37 11,11.76 9.93,12.6 9.68,13.39 10.1,14.7 10.43,15.73 11.05,16.59 11.68,17.45 12.74,18.92 14,20.2 15.43,21.32 15.81,21.61 16.21,21.88 16.64,22.09 17.62,22.56 18.51,22.44 19.31,21.73 19.71,21.37 20.06,20.97 20.43,20.59 21.61,19.42 22.96,19.21 24.35,20.1 25.67,20.94 26.86,21.97 27.89,23.14 28.86,24.22 28.75,25.27 27.68,26.25 27.4,26.5 27.1,26.73 26.84,27 25.22,28.7 23.18,29.34 21.45,29.36 Z M 21.45,29.36" />
    </g>
</svg>
