<?xml version="1.0" encoding="UTF-8"?>
<!DOCTYPE svg PUBLIC "-//W3C//DTD SVG 1.1//EN" "http://www.w3.org/Graphics/SVG/1.1/DTD/svg11.dtd">
<svg version="1.1" xmlns="http://www.w3.org/2000/svg" xmlns:xlink="http://www.w3.org/1999/xlink" width="96" height="96"  xml:space="preserve" id="phoneCallIn">
    <!-- Generated by PaintCode - http://www.paintcodeapp.com -->
    <g id="phoneCallIn-phoneCallInGroup">
        <path id="phoneCallIn-bezier" stroke="none" fill="rgb(90, 90, 90)" d="M 65.96,95.12 C 59.08,95.16 53.88,93.95 48.34,91.32 38.9,86.84 30.81,80.15 22,70.29 14.73,62.16 9.56,54.36 6.21,45.88 2.36,36.12 2.07,26.8 5.74,17.78 7.48,13.51 10.07,9.97 13.55,7.21 14.14,6.75 14.6,6.36 15.63,5.48 15.64,5.47 15.64,5.47 15.64,5.47 16.67,4.59 17.13,4.2 17.73,3.73 21.2,0.97 24.89,1 28.29,3.81 29.23,4.59 30.11,5.5 30.87,6.49 33.19,9.48 35.31,12.77 37.34,16.43 38.2,17.98 38.8,19.6 39.14,21.28 39.95,25.34 38.93,28.69 35.86,31.18 34.26,32.48 32.58,33.81 30.76,35.24 27.41,37.85 26.72,40.1 28.01,44.11 28.91,46.89 30.14,48.89 33.27,53.18 36.79,58 41.02,62.28 45.94,66.08 47.36,67.17 48.62,67.98 49.91,68.6 52.88,70.02 55.52,69.66 57.96,67.51 58.67,66.9 59.21,66.35 60.39,65.12 60.41,65.1 60.41,65.1 60.42,65.09 61.07,64.41 61.38,64.09 61.76,63.71 66.17,59.35 71.34,58.66 76.43,61.89 80.98,64.78 85.14,68.31 88.78,72.37 92.41,76.42 92.08,80.58 87.98,84.3 87.67,84.58 87.42,84.79 86.87,85.26 86.86,85.26 86.86,85.26 86.85,85.27 85.96,86.02 85.57,86.37 85.14,86.82 79.89,92.28 72.96,95.04 65.97,95.12 L 65.96,95.12 Z M 65.94,93.14 C 72.42,93.06 78.82,90.51 83.69,85.45 84.19,84.94 84.61,84.56 85.56,83.76 85.56,83.76 85.56,83.76 85.57,83.75 86.1,83.3 86.34,83.1 86.62,82.84 89.94,79.83 90.17,76.9 87.29,73.69 83.76,69.76 79.75,66.35 75.35,63.56 71.07,60.84 66.93,61.39 63.18,65.11 62.81,65.47 62.51,65.78 61.87,66.45 61.86,66.47 61.86,66.47 61.85,66.48 60.62,67.75 60.05,68.32 59.29,68.99 56.24,71.67 52.74,72.15 49.04,70.38 47.61,69.69 46.24,68.81 44.72,67.64 39.64,63.73 35.28,59.31 31.65,54.34 28.39,49.88 27.09,47.76 26.11,44.72 24.56,39.92 25.52,36.8 29.52,33.68 31.34,32.27 33,30.94 34.59,29.65 37.06,27.65 37.85,25.05 37.18,21.66 36.88,20.19 36.35,18.76 35.58,17.38 33.6,13.81 31.53,10.6 29.28,7.69 28.61,6.82 27.84,6.02 27.01,5.33 24.34,3.12 21.71,3.11 18.98,5.27 18.41,5.72 17.96,6.1 16.95,6.97 16.94,6.97 16.94,6.97 16.94,6.97 15.89,7.87 15.41,8.27 14.8,8.76 11.59,11.29 9.21,14.55 7.59,18.52 4.13,27.05 4.4,35.85 8.07,45.16 11.33,53.4 16.37,61.01 23.5,68.98 32.15,78.66 40.04,85.19 49.21,89.54 54.48,92.04 59.37,93.18 65.95,93.14 L 65.94,93.14 Z M 65.94,93.14" />
        <path id="phoneCallIn-bezier2" stroke="none" fill="rgb(90, 90, 90)" d="M 91.98,7.02 L 63.08,35.61 C 62.69,35.99 62.06,35.99 61.67,35.61 61.28,35.22 61.28,34.59 61.67,34.21 L 90.56,5.62 C 90.95,5.23 91.59,5.23 91.98,5.62 92.37,6.01 92.37,6.63 91.98,7.02 Z M 91.98,7.02" />
        <path id="phoneCallIn-polygon" stroke="none" fill="rgb(90, 90, 90)" d="M 60.14,18 L 79,36.97 53.23,43.92 60.14,18 Z M 60.14,18" />
    </g>
</svg>
