<?xml version="1.0" encoding="UTF-8"?>
<!DOCTYPE svg PUBLIC "-//W3C//DTD SVG 1.1//EN" "http://www.w3.org/Graphics/SVG/1.1/DTD/svg11.dtd">
<svg version="1.1" xmlns="http://www.w3.org/2000/svg" xmlns:xlink="http://www.w3.org/1999/xlink" width="96" height="96"  xml:space="preserve" id="rSVP">
    <!-- Generated by PaintCode - http://www.paintcodeapp.com -->
    <g id="rSVP-rSVPGroup">
        <path id="rSVP-bezier3" stroke="none" fill="rgb(90, 90, 90)" d="M 28.68,14.8 C 31.14,7.47 36.59,3.3 44.71,2.22 48.05,1.78 51.37,2 54.64,2.87 61.1,4.6 65.49,8.62 67.25,14.62 70.79,26.66 69.12,37.59 61.83,47.18 61.29,47.89 60.69,48.58 60.03,49.23 59.62,49.63 59.52,50.03 59.69,50.61 59.73,50.77 59.77,50.9 59.85,51.18 59.85,51.21 59.85,51.21 59.86,51.24 60.14,52.25 60.28,52.73 60.47,53.29 61.17,55.41 62.37,56.79 64.28,57.58 67.11,58.76 69.41,59.74 74.4,61.92 74.69,62.05 74.69,62.05 74.98,62.17 75.49,62.4 75.7,62.49 76.01,62.62 76.95,63.03 77.7,63.37 79.35,64.12 79.4,64.15 79.4,64.15 79.46,64.18 80.37,64.59 80.85,64.81 81.39,65.05 86.22,67.22 89.03,71.1 89.91,76.43 90.23,78.39 90.43,80.12 90.76,83.41 90.78,83.59 90.78,83.59 90.8,83.77 90.89,84.74 90.94,85.18 90.99,85.72 91.05,86.33 90.74,87.01 90.3,87.47 88.95,88.85 87.29,89.72 84.89,90.52 81.13,91.76 77.3,92.43 71.73,93 64.51,93.74 56.96,94.02 47.84,93.99 L 47.84,93 48.4,93.82 C 47.83,94.01 47.83,94.01 47.84,93.99 47.8,93.99 47.8,93.99 47.76,93.99 47.67,93.99 47.67,93.99 47.58,93.99 47.54,93.99 47.54,93.99 47.5,93.98 47.36,93.98 47.36,93.98 47.32,93.98 37.59,93.85 34.28,93.71 26.02,93.16 19.58,92.73 14.87,91.93 10.43,90.26 9.38,89.87 8.59,89.42 6.98,88.39 6.88,88.32 6.88,88.32 6.78,88.26 6.41,88.02 6.17,87.87 5.93,87.72 5.36,87.37 4.93,86.57 5.01,85.91 5.1,85.15 5.17,84.54 5.33,83.17 5.35,83.02 5.35,83.02 5.36,82.88 5.52,81.49 5.61,80.69 5.72,79.83 5.97,77.92 6.21,76.35 6.52,74.85 7.38,70.62 9.89,67.37 13.84,65.5 15.32,64.8 16.51,64.26 19.19,63.11 19.23,63.09 19.23,63.09 19.27,63.07 20.77,62.42 21.48,62.11 22.34,61.73 23.15,61.36 23.81,61.07 25.27,60.44 25.29,60.43 25.29,60.43 25.31,60.42 29.1,58.77 30.79,58 32.81,56.94 35.1,55.74 36.23,53.51 36.5,50.26 36.51,50.04 36.17,49.48 35.51,48.74 32.08,44.88 29.77,40.92 28.62,36.59 26.51,28.68 26.41,21.56 28.68,14.8 Z M 30.6,15.42 C 28.46,21.78 28.56,28.53 30.57,36.08 31.64,40.09 33.8,43.79 37.03,47.44 38.08,48.61 38.59,49.44 38.51,50.42 38.19,54.28 36.75,57.12 33.77,58.69 31.69,59.78 29.96,60.57 26.13,62.23 26.11,62.24 26.11,62.24 26.08,62.26 24.63,62.89 23.98,63.17 23.17,63.53 22.31,63.92 21.59,64.23 20.08,64.89 20.04,64.9 20.04,64.9 20,64.92 17.35,66.07 16.17,66.6 14.72,67.28 11.35,68.89 9.24,71.61 8.5,75.24 8.21,76.69 7.97,78.21 7.73,80.07 7.62,80.93 7.53,81.72 7.37,83.1 7.36,83.24 7.36,83.24 7.34,83.39 7.18,84.76 7.11,85.38 7.02,86.15 7.03,86.01 7.07,86.08 7,86.04 7.26,86.2 7.51,86.35 7.89,86.6 7.99,86.66 7.99,86.66 8.09,86.73 9.58,87.69 10.28,88.09 11.15,88.41 15.37,89.99 19.9,90.76 26.16,91.18 34.38,91.73 37.65,91.86 47.37,92 47.42,92 47.42,92 47.55,92 47.58,92 47.58,92 47.62,92 47.71,92 47.71,92 47.77,92 47.79,92 47.79,92 47.8,92 47.84,91.98 47.84,91.98 47.28,92.17 L 47.54,92 47.85,92 C 56.9,92.03 64.38,91.75 71.52,91.02 76.95,90.47 80.66,89.82 84.24,88.64 86.36,87.93 87.76,87.2 88.84,86.09 88.91,86.02 88.98,85.88 88.98,85.92 88.92,85.38 88.88,84.94 88.78,83.96 88.77,83.78 88.77,83.78 88.75,83.6 88.42,80.35 88.23,78.66 87.91,76.75 87.14,72.05 84.74,68.74 80.55,66.86 80,66.61 79.52,66.39 78.61,65.97 78.55,65.95 78.55,65.95 78.49,65.92 76.85,65.17 76.11,64.84 75.19,64.43 74.88,64.3 74.67,64.21 74.16,63.99 73.87,63.86 73.87,63.86 73.58,63.73 68.6,61.56 66.31,60.58 63.49,59.41 61.01,58.39 59.42,56.54 58.55,53.91 58.35,53.31 58.2,52.8 57.91,51.76 57.9,51.73 57.9,51.73 57.89,51.7 57.82,51.42 57.78,51.29 57.74,51.14 57.39,49.89 57.66,48.75 58.6,47.83 59.19,47.25 59.73,46.63 60.21,46 67.11,36.92 68.68,26.64 65.31,15.17 63.75,9.85 59.9,6.34 54.11,4.79 51.1,3.98 48.05,3.78 44.98,4.19 37.61,5.17 32.81,8.84 30.6,15.42 Z M 30.6,15.42" />
    </g>
</svg>
