<?xml version="1.0" encoding="UTF-8"?>
<!DOCTYPE svg PUBLIC "-//W3C//DTD SVG 1.1//EN" "http://www.w3.org/Graphics/SVG/1.1/DTD/svg11.dtd">
<svg version="1.1" xmlns="http://www.w3.org/2000/svg" xmlns:xlink="http://www.w3.org/1999/xlink" width="32" height="32"  xml:space="preserve" id="trash">
    <!-- Generated by PaintCode - http://www.paintcodeapp.com -->
    <g id="trash-trashGroup">
        <circle id="trash-oval3" stroke="none" fill="rgb(255, 255, 255)" cx="16" cy="16" r="13" />
        <path id="trash-oval" stroke="none" fill="rgb(90, 90, 90)" d="M 28.75,16 C 28.75,23.04 23.04,28.75 16,28.75 8.96,28.75 3.25,23.04 3.25,16 3.25,8.96 8.96,3.25 16,3.25 23.04,3.25 28.75,8.96 28.75,16 L 27.25,16 C 27.25,9.79 22.21,4.75 16,4.75 9.79,4.75 4.75,9.79 4.75,16 4.75,22.21 9.79,27.25 16,27.25 22.21,27.25 27.25,22.21 27.25,16 L 28.75,16 Z M 28.75,16" />
        <path id="trash-bezier2" stroke="none" fill="rgb(90, 90, 90)" d="M 10.75,11.5 L 10.75,23.5 10,22.75 22,22.75 21.25,23.5 21.25,11.5 22,12.25 10,12.25 C 9.59,12.25 9.25,11.91 9.25,11.5 9.25,11.09 9.59,10.75 10,10.75 L 22,10.75 C 22.41,10.75 22.75,11.09 22.75,11.5 L 22.75,23.5 C 22.75,23.91 22.41,24.25 22,24.25 L 10,24.25 C 9.59,24.25 9.25,23.91 9.25,23.5 L 9.25,11.5 C 9.25,11.09 9.59,10.75 10,10.75 10.41,10.75 10.75,11.09 10.75,11.5 Z M 10.75,11.5" />
        <path id="trash-bezier" stroke="none" fill="rgb(90, 90, 90)" d="M 9.5,9 C 13.89,9 13.89,9 15.63,9 16.17,9 16.17,9 16.39,9 16.46,9 16.46,9 16.49,9 16.49,9 16.49,9 16.5,9 16.5,9 16.5,9 16.5,9 L 16.5,9 16.5,9 16.5,10 C 16.22,10 16,9.78 16,9.5 16,9.22 16.22,9 16.5,9 L 16.5,9 16.5,10 16.5,10 C 16.5,10 16.5,10 16.5,10 16.49,10 16.49,10 16.49,10 16.46,10 16.46,10 16.39,10 16.17,10 16.17,10 15.63,10 13.89,10 13.89,10 9.5,10 9.22,10 9,9.78 9,9.5 9,9.22 9.22,9 9.5,9 Z M 9.5,9" />
        <path id="trash-bezier3" stroke="none" fill="rgb(90, 90, 90)" d="M 22.5,10 C 18.74,10 18.74,10 17.24,10 16.78,10 16.78,10 16.59,10 16.53,10 16.53,10 16.51,10 16.5,10 16.5,10 16.5,10 L 16.5,10 16.5,10 16.5,10 16.5,9 C 16.78,9 17,9.22 17,9.5 17,9.77 16.78,10 16.5,10 L 16.5,10 16.5,9 16.5,9 16.5,9 C 16.5,9 16.5,9 16.51,9 16.53,9 16.53,9 16.59,9 16.78,9 16.78,9 17.24,9 18.74,9 18.74,9 22.5,9 22.78,9 23,9.22 23,9.5 23,9.77 22.78,10 22.5,10 Z M 22.5,10" />
        <path id="trash-bezier4" stroke="none" fill="rgb(90, 90, 90)" d="M 14,21.5 C 14,19.62 14,19.62 14,18.87 14,18.64 14,18.64 14,18.55 14,18.52 14,18.52 14,18.51 14,18.5 14,18.5 14,18.5 L 14,18.5 14,18.5 15,18.5 C 15,18.78 14.78,19 14.5,19 14.22,19 14,18.78 14,18.5 L 14,18.5 15,18.5 15,18.5 C 15,18.5 15,18.5 15,18.51 15,18.52 15,18.52 15,18.55 15,18.64 15,18.64 15,18.87 15,19.62 15,19.62 15,21.5 15,21.78 14.78,22 14.5,22 14.22,22 14,21.78 14,21.5 Z M 14,21.5" />
        <path id="trash-bezier5" stroke="none" fill="rgb(90, 90, 90)" d="M 15,13.5 C 15,16.63 15,16.63 15,17.88 15,18.27 15,18.27 15,18.42 15,18.47 15,18.47 15,18.49 15,18.5 15,18.5 15,18.5 L 15,18.5 15,18.5 15,18.5 14,18.5 C 14,18.22 14.22,18 14.5,18 14.78,18 15,18.22 15,18.5 L 15,18.5 14,18.5 14,18.5 14,18.5 C 14,18.5 14,18.5 14,18.49 14,18.47 14,18.47 14,18.42 14,18.27 14,18.27 14,17.88 14,16.63 14,16.63 14,13.5 14,13.22 14.22,13 14.5,13 14.78,13 15,13.22 15,13.5 Z M 15,13.5" />
        <path id="trash-bezier8" stroke="none" fill="rgb(90, 90, 90)" d="M 17,21.5 C 17,19.62 17,19.62 17,18.87 17,18.64 17,18.64 17,18.55 17,18.52 17,18.52 17,18.51 17,18.5 17,18.5 17,18.5 L 17,18.5 17,18.5 18,18.5 C 18,18.78 17.78,19 17.5,19 17.22,19 17,18.78 17,18.5 L 17,18.5 18,18.5 18,18.5 C 18,18.5 18,18.5 18,18.51 18,18.52 18,18.52 18,18.55 18,18.64 18,18.64 18,18.87 18,19.62 18,19.62 18,21.5 18,21.78 17.78,22 17.5,22 17.22,22 17,21.78 17,21.5 Z M 17,21.5" />
        <path id="trash-bezier9" stroke="none" fill="rgb(90, 90, 90)" d="M 18,13.5 C 18,16.63 18,16.63 18,17.88 18,18.27 18,18.27 18,18.42 18,18.47 18,18.47 18,18.49 18,18.5 18,18.5 18,18.5 L 18,18.5 18,18.5 18,18.5 17,18.5 C 17,18.22 17.22,18 17.5,18 17.78,18 18,18.22 18,18.5 L 18,18.5 17,18.5 17,18.5 17,18.5 C 17,18.5 17,18.5 17,18.49 17,18.47 17,18.47 17,18.42 17,18.27 17,18.27 17,17.88 17,16.63 17,16.63 17,13.5 17,13.22 17.22,13 17.5,13 17.78,13 18,13.22 18,13.5 Z M 18,13.5" />
        <path id="trash-bezier6" stroke="none" fill="rgb(90, 90, 90)" d="M 11.25,21.5 C 11.25,19.62 11.25,19.62 11.25,18.87 11.25,18.64 11.25,18.64 11.25,18.55 11.25,18.52 11.25,18.52 11.25,18.51 11.25,18.5 11.25,18.5 11.25,18.5 L 11.25,18.5 11.25,18.5 11.75,18.5 C 11.75,18.64 11.64,18.75 11.5,18.75 11.36,18.75 11.25,18.64 11.25,18.5 L 11.25,18.5 11.75,18.5 11.75,18.5 C 11.75,18.5 11.75,18.5 11.75,18.51 11.75,18.52 11.75,18.52 11.75,18.55 11.75,18.64 11.75,18.64 11.75,18.87 11.75,19.62 11.75,19.62 11.75,21.5 11.75,21.64 11.64,21.75 11.5,21.75 11.36,21.75 11.25,21.64 11.25,21.5 Z M 11.25,21.5" />
        <path id="trash-bezier7" stroke="none" fill="rgb(90, 90, 90)" d="M 11.75,13.5 C 11.75,16.63 11.75,16.63 11.75,17.88 11.75,18.27 11.75,18.27 11.75,18.42 11.75,18.47 11.75,18.47 11.75,18.49 11.75,18.5 11.75,18.5 11.75,18.5 L 11.75,18.5 11.75,18.5 11.75,18.5 11.25,18.5 C 11.25,18.36 11.36,18.25 11.5,18.25 11.64,18.25 11.75,18.36 11.75,18.5 L 11.75,18.5 11.25,18.5 11.25,18.5 11.25,18.5 C 11.25,18.5 11.25,18.5 11.25,18.49 11.25,18.47 11.25,18.47 11.25,18.42 11.25,18.27 11.25,18.27 11.25,17.88 11.25,16.63 11.25,16.63 11.25,13.5 11.25,13.36 11.36,13.25 11.5,13.25 11.64,13.25 11.75,13.36 11.75,13.5 Z M 11.75,13.5" />
        <path id="trash-bezier10" stroke="none" fill="rgb(90, 90, 90)" d="M 20.25,21.5 C 20.25,19.62 20.25,19.62 20.25,18.87 20.25,18.64 20.25,18.64 20.25,18.55 20.25,18.52 20.25,18.52 20.25,18.51 20.25,18.5 20.25,18.5 20.25,18.5 L 20.25,18.5 20.25,18.5 20.75,18.5 C 20.75,18.64 20.64,18.75 20.5,18.75 20.36,18.75 20.25,18.64 20.25,18.5 L 20.25,18.5 20.75,18.5 20.75,18.5 C 20.75,18.5 20.75,18.5 20.75,18.51 20.75,18.52 20.75,18.52 20.75,18.55 20.75,18.64 20.75,18.64 20.75,18.87 20.75,19.62 20.75,19.62 20.75,21.5 20.75,21.64 20.64,21.75 20.5,21.75 20.36,21.75 20.25,21.64 20.25,21.5 Z M 20.25,21.5" />
        <path id="trash-bezier11" stroke="none" fill="rgb(90, 90, 90)" d="M 20.75,13.5 C 20.75,16.63 20.75,16.63 20.75,17.88 20.75,18.27 20.75,18.27 20.75,18.42 20.75,18.47 20.75,18.47 20.75,18.49 20.75,18.5 20.75,18.5 20.75,18.5 L 20.75,18.5 20.75,18.5 20.75,18.5 20.25,18.5 C 20.25,18.36 20.36,18.25 20.5,18.25 20.64,18.25 20.75,18.36 20.75,18.5 L 20.75,18.5 20.25,18.5 20.25,18.5 20.25,18.5 C 20.25,18.5 20.25,18.5 20.25,18.49 20.25,18.47 20.25,18.47 20.25,18.42 20.25,18.27 20.25,18.27 20.25,17.88 20.25,16.63 20.25,16.63 20.25,13.5 20.25,13.36 20.36,13.25 20.5,13.25 20.64,13.25 20.75,13.36 20.75,13.5 Z M 20.75,13.5" />
        <path id="trash-bezier12" stroke="none" fill="rgb(90, 90, 90)" d="M 14,7 L 14,9.5 13.5,9 18.5,9 18,9.5 18,7 18.5,7.5 13.5,7.5 C 13.22,7.5 13,7.28 13,7 13,6.72 13.22,6.5 13.5,6.5 L 18.5,6.5 C 18.78,6.5 19,6.72 19,7 L 19,9.5 C 19,9.78 18.78,10 18.5,10 L 13.5,10 C 13.22,10 13,9.78 13,9.5 L 13,7 C 13,6.72 13.22,6.5 13.5,6.5 13.78,6.5 14,6.72 14,7 Z M 14,7" />
    </g>
</svg>
