<?xml version="1.0" encoding="UTF-8"?>
<!DOCTYPE svg PUBLIC "-//W3C//DTD SVG 1.1//EN" "http://www.w3.org/Graphics/SVG/1.1/DTD/svg11.dtd">
<svg version="1.1" xmlns="http://www.w3.org/2000/svg" xmlns:xlink="http://www.w3.org/1999/xlink" width="16" height="16"  xml:space="preserve" id="visit">
    <!-- Generated by PaintCode - http://www.paintcodeapp.com -->
    <g id="visit-visitGroup">
        <g id="visit-group">
            <path id="visit-bezier" stroke="none" fill="rgb(90, 90, 90)" d="M 13.6,7.39 L 13.6,14.5 C 13.6,14.9 13.31,15.23 12.94,15.23 L 10.08,15.23 C 9.72,15.23 9.43,14.9 9.43,14.5 L 9.43,9.86 C 9.43,9.67 9.28,9.5 9.11,9.5 L 6.83,9.5 C 6.65,9.5 6.5,9.67 6.5,9.86 L 6.5,14.5 C 6.5,14.9 6.21,15.23 5.85,15.23 L 2.98,15.23 C 2.62,15.23 2.32,14.9 2.32,14.5 L 2.32,7.4 C 2.32,7.17 2.42,6.95 2.58,6.81 L 7.6,2.47 C 7.84,2.27 8.17,2.27 8.4,2.48 L 13.35,6.81 C 13.51,6.95 13.6,7.17 13.6,7.39 Z M 10,14.98 C 10,15.18 9.82,14.98 10,14.98 L 10,14.98 Z M 10,14.98" />
            <path id="visit-bezier2" stroke="none" fill="rgb(90, 90, 90)" d="M 0.65,7.21 L 7.59,1.23 C 7.83,1.02 8.17,1.02 8.42,1.24 L 15.42,7.39 C 15.5,7.45 15.51,7.57 15.45,7.65 15.4,7.73 15.29,7.75 15.22,7.68 L 8.21,1.53 C 8.09,1.43 7.91,1.43 7.79,1.53 L 0.86,7.51 C 0.78,7.58 0.68,7.56 0.62,7.48 0.56,7.4 0.58,7.28 0.65,7.21 Z M 0.65,7.21" />
        </g>
    </g>
</svg>
