<?xml version="1.0" encoding="UTF-8"?>
<!DOCTYPE svg PUBLIC "-//W3C//DTD SVG 1.1//EN" "http://www.w3.org/Graphics/SVG/1.1/DTD/svg11.dtd">
<svg version="1.1" xmlns="http://www.w3.org/2000/svg" xmlns:xlink="http://www.w3.org/1999/xlink" width="32" height="32"  xml:space="preserve" id="xout">
    <!-- Generated by PaintCode - http://www.paintcodeapp.com -->
    <g id="xout-xoutGroup">
        <path id="xout-oval" stroke="none" fill="rgb(255, 255, 255)" d="M 28.75,16 C 28.75,23.04 23.04,28.75 16,28.75 8.96,28.75 3.25,23.04 3.25,16 3.25,8.96 8.96,3.25 16,3.25 23.04,3.25 28.75,8.96 28.75,16 L 27.25,16 C 27.25,9.79 22.21,4.75 16,4.75 9.79,4.75 4.75,9.79 4.75,16 4.75,22.21 9.79,27.25 16,27.25 22.21,27.25 27.25,22.21 27.25,16 L 28.75,16 Z M 28.75,16" />
        <circle id="xout-oval2" stroke="none" fill="rgb(90, 90, 90)" cx="16" cy="16" r="12.75" />
        <path id="xout-bezier" stroke="none" fill="rgb(255, 255, 255)" d="M 9.56,8.48 C 23.08,22 23.08,22 23.56,22.48 23.86,22.78 23.85,23.25 23.54,23.54 23.23,23.83 22.74,23.82 22.44,23.52 21.96,23.04 21.96,23.04 8.44,9.52 8.14,9.22 8.15,8.75 8.46,8.46 8.77,8.17 9.26,8.18 9.56,8.48 Z M 9.56,8.48" />
        <path id="xout-bezier2" stroke="none" fill="rgb(255, 255, 255)" d="M 8.47,22.47 C 21.99,8.95 21.99,8.95 22.47,8.47 22.76,8.18 23.24,8.18 23.53,8.47 23.82,8.76 23.82,9.24 23.53,9.53 23.05,10.01 23.05,10.01 9.53,23.53 9.24,23.82 8.76,23.82 8.47,23.53 8.18,23.24 8.18,22.76 8.47,22.47 Z M 8.47,22.47" />
    </g>
</svg>
